<svg width="45" height="45" viewBox="0 0 45 45" fill="none" xmlns="http://www.w3.org/2000/svg">
<path d="M40.6406 16.9453C39.6524 14.6061 38.2196 12.4809 36.4219 10.6875C34.6284 8.88973 32.5032 7.45701 30.1641 6.46875C27.7339 5.44043 25.1587 4.92188 22.5 4.92188C19.8413 4.92188 17.2661 5.44043 14.8359 6.46875C12.4968 7.45701 10.3716 8.88973 8.57812 10.6875C6.78036 12.4809 5.34764 14.6061 4.35937 16.9453C3.33105 19.3755 2.8125 21.9507 2.8125 24.6094C2.8125 30.4409 5.37451 35.9341 9.83936 39.687L9.91406 39.7485C10.1689 39.9595 10.4897 40.0781 10.8193 40.0781H34.1851C34.5146 40.0781 34.8354 39.9595 35.0903 39.7485L35.165 39.687C39.6255 35.9341 42.1875 30.4409 42.1875 24.6094C42.1875 21.9507 41.6646 19.3755 40.6406 16.9453ZM21.1816 10.1953C21.1816 10.002 21.3398 9.84375 21.5332 9.84375H23.4668C23.6602 9.84375 23.8184 10.002 23.8184 10.1953V13.7109C23.8184 13.9043 23.6602 14.0625 23.4668 14.0625H21.5332C21.3398 14.0625 21.1816 13.9043 21.1816 13.7109V10.1953ZM11.8652 25.5762C11.8652 25.7695 11.707 25.9277 11.5137 25.9277H7.99805C7.80469 25.9277 7.64648 25.7695 7.64648 25.5762V23.6426C7.64648 23.4492 7.80469 23.291 7.99805 23.291H11.5137C11.707 23.291 11.8652 23.4492 11.8652 23.6426V25.5762ZM15.8511 16.5894L14.4844 17.9561C14.4183 18.0215 14.3291 18.0582 14.2361 18.0582C14.1431 18.0582 14.0539 18.0215 13.9878 17.9561L11.5005 15.4688C11.4351 15.4027 11.3984 15.3134 11.3984 15.2205C11.3984 15.1275 11.4351 15.0382 11.5005 14.9722L12.8672 13.6055C13.0034 13.4692 13.2275 13.4692 13.3638 13.6055L15.8511 16.0928C15.9873 16.229 15.9873 16.4531 15.8511 16.5894V16.5894ZM28.6436 20.2632L24.9302 23.9766C25.1499 24.7983 24.939 25.708 24.293 26.354C24.0646 26.5828 23.7933 26.7643 23.4947 26.8882C23.1961 27.012 22.876 27.0758 22.5527 27.0758C22.2295 27.0758 21.9094 27.012 21.6107 26.8882C21.3121 26.7643 21.0409 26.5828 20.8125 26.354C20.5837 26.1256 20.4022 25.8544 20.2783 25.5558C20.1545 25.2572 20.0907 24.937 20.0907 24.6138C20.0907 24.2905 20.1545 23.9704 20.2783 23.6718C20.4022 23.3732 20.5837 23.1019 20.8125 22.8735C21.1176 22.5675 21.4982 22.3474 21.9156 22.2355C22.3331 22.1236 22.7726 22.1239 23.1899 22.2363L26.9033 18.5229C27.0396 18.3867 27.2637 18.3867 27.3999 18.5229L28.6436 19.7666C28.7798 19.9028 28.7798 20.1226 28.6436 20.2632V20.2632ZM30.5332 17.9604L29.1665 16.5938C29.1011 16.5277 29.0644 16.4384 29.0644 16.3455C29.0644 16.2525 29.1011 16.1632 29.1665 16.0972L31.6538 13.6099C31.79 13.4736 32.0142 13.4736 32.1504 13.6099L33.5171 14.9766C33.6533 15.1128 33.6533 15.3369 33.5171 15.4731L31.0298 17.9604C30.9637 18.0259 30.8745 18.0626 30.7815 18.0626C30.6885 18.0626 30.5993 18.0259 30.5332 17.9604V17.9604ZM37.1777 25.5762C37.1777 25.7695 37.0195 25.9277 36.8262 25.9277H33.3105C33.1172 25.9277 32.959 25.7695 32.959 25.5762V23.6426C32.959 23.4492 33.1172 23.291 33.3105 23.291H36.8262C37.0195 23.291 37.1777 23.4492 37.1777 23.6426V25.5762Z" fill="white"/>
</svg>
