<svg width="45" height="45" viewBox="0 0 45 45" fill="none" xmlns="http://www.w3.org/2000/svg">
<path d="M22.4998 2.8125C21.008 2.8125 19.5772 3.40513 18.5223 4.46002C17.4674 5.51492 16.8748 6.94566 16.8748 8.4375V14.0625H14.0623V8.4375C14.0623 6.19974 14.9512 4.05362 16.5336 2.47129C18.1159 0.888948 20.262 0 22.4998 0C24.7376 0 26.8837 0.888948 28.466 2.47129C30.0484 4.05362 30.9373 6.19974 30.9373 8.4375V14.0625H28.1248V8.4375C28.1248 6.94566 27.5322 5.51492 26.4773 4.46002C25.4224 3.40513 23.9916 2.8125 22.4998 2.8125ZM14.0623 14.0625H9.4498C8.43975 14.0627 7.46331 14.4253 6.69793 15.0844C5.93255 15.7434 5.42902 16.6552 5.27886 17.6541L2.39042 36.9281C2.24076 37.9282 2.30858 38.9488 2.58924 39.9203C2.8699 40.8918 3.3568 41.7913 4.01674 42.5575C4.67667 43.3236 5.4941 43.9385 6.41327 44.36C7.33244 44.7815 8.33171 44.9998 9.34292 45H35.6539C36.6653 45.0002 37.6649 44.7822 38.5844 44.3609C39.5039 43.9395 40.3217 43.3248 40.9819 42.5585C41.6422 41.7923 42.1293 40.8926 42.4102 39.921C42.691 38.9493 42.7589 37.9284 42.6092 36.9281L39.7179 17.6541C39.5678 16.6557 39.0647 15.7443 38.2999 15.0853C37.5351 14.4263 36.5594 14.0634 35.5498 14.0625H30.9373V18.2812C30.9373 18.6542 30.7891 19.0119 30.5254 19.2756C30.2617 19.5393 29.904 19.6875 29.531 19.6875C29.1581 19.6875 28.8004 19.5393 28.5367 19.2756C28.273 19.0119 28.1248 18.6542 28.1248 18.2812V14.0625H16.8748V18.2812C16.8748 18.6542 16.7266 19.0119 16.4629 19.2756C16.1992 19.5393 15.8415 19.6875 15.4685 19.6875C15.0956 19.6875 14.7379 19.5393 14.4742 19.2756C14.2105 19.0119 14.0623 18.6542 14.0623 18.2812V14.0625Z" fill="white"/>
</svg>
