<svg width="45" height="45" viewBox="0 0 45 45" fill="none" xmlns="http://www.w3.org/2000/svg">
<path d="M26.8491 29.4052C26.8491 29.4052 42.7319 17.9437 40.9701 4.82624C40.9527 4.60348 40.8643 4.39217 40.7181 4.22324C40.5557 4.07267 40.3472 3.98147 40.1264 3.96449C27.3081 2.16224 16.1099 18.414 16.1099 18.414C6.39436 17.2507 7.10086 19.188 2.66836 29.835C1.82011 31.8645 3.19486 32.5642 4.70236 31.9927L9.53536 30.168L15.3629 36.126L13.5786 41.0737C13.0206 42.6172 13.7024 44.0235 15.6891 43.1572C26.0931 38.6212 27.9876 39.3457 26.8491 29.4052V29.4052ZM29.1194 16.0942C28.472 15.4253 28.1101 14.531 28.1101 13.6001C28.1101 12.6693 28.472 11.7749 29.1194 11.106C29.4359 10.7798 29.8146 10.5205 30.2332 10.3434C30.6518 10.1663 31.1016 10.075 31.5561 10.075C32.0106 10.075 32.4605 10.1663 32.879 10.3434C33.2976 10.5205 33.6764 10.7798 33.9929 11.106C34.6402 11.7749 35.0021 12.6693 35.0021 13.6001C35.0021 14.531 34.6402 15.4253 33.9929 16.0942C33.6764 16.4204 33.2976 16.6797 32.879 16.8568C32.4605 17.0339 32.0106 17.1252 31.5561 17.1252C31.1016 17.1252 30.6518 17.0339 30.2332 16.8568C29.8146 16.6797 29.4359 16.4204 29.1194 16.0942Z" fill="white"/>
</svg>
