<svg width="45" height="45" viewBox="0 0 45 45" fill="none" xmlns="http://www.w3.org/2000/svg">
<path d="M16.875 40C18.6009 40 20 38.6009 20 36.875C20 35.1491 18.6009 33.75 16.875 33.75C15.1491 33.75 13.75 35.1491 13.75 36.875C13.75 38.6009 15.1491 40 16.875 40Z" fill="white"/>
<path d="M33.125 40C34.8509 40 36.25 38.6009 36.25 36.875C36.25 35.1491 34.8509 33.75 33.125 33.75C31.3991 33.75 30 35.1491 30 36.875C30 38.6009 31.3991 40 33.125 40Z" fill="white"/>
<path d="M41.3751 7.98753C41.2587 7.83626 41.1091 7.71368 40.9379 7.62917C40.7668 7.54467 40.5785 7.50049 40.3876 7.50003H11.5126L10.9501 5.71253C10.8883 5.52061 10.781 5.34647 10.6374 5.20499C10.4937 5.06351 10.318 4.95888 10.1251 4.90003L5.00011 3.32503C4.84252 3.27661 4.67694 3.2597 4.51282 3.27526C4.3487 3.29083 4.18925 3.33857 4.04357 3.41576C3.74938 3.57165 3.52916 3.83802 3.43136 4.15628C3.33356 4.47454 3.36619 4.81862 3.52208 5.11282C3.67797 5.40701 3.94435 5.62723 4.26261 5.72503L8.75011 7.10003L14.4751 25.1875L12.4376 26.8625L12.2751 27.025C11.7712 27.6085 11.4858 28.3489 11.4675 29.1196C11.4493 29.8903 11.6994 30.6434 12.1751 31.25C12.5158 31.6644 12.9487 31.9932 13.4393 32.2103C13.9298 32.4273 14.4643 32.5265 15.0001 32.5H35.8626C36.1941 32.5 36.5121 32.3683 36.7465 32.1339C36.9809 31.8995 37.1126 31.5816 37.1126 31.25C37.1126 30.9185 36.9809 30.6006 36.7465 30.3661C36.5121 30.1317 36.1941 30 35.8626 30H14.8001C14.6562 29.9951 14.5159 29.9532 14.3929 29.8782C14.2699 29.8033 14.1683 29.6979 14.098 29.5722C14.0276 29.4466 13.9908 29.3049 13.9912 29.1609C13.9916 29.0168 14.0291 28.8753 14.1001 28.75L17.1126 26.25H36.4001C36.6857 26.2584 36.9654 26.1686 37.1929 25.9958C37.4203 25.8229 37.5817 25.5774 37.6501 25.3L41.6501 9.05003C41.6881 8.86368 41.6831 8.67111 41.6355 8.48699C41.5878 8.30286 41.4988 8.13204 41.3751 7.98753V7.98753Z" fill="white"/>
</svg>
