<svg width="45" height="45" viewBox="0 0 45 45" fill="none" xmlns="http://www.w3.org/2000/svg">
<g clip-path="url(#clip0_13_15)">
<path d="M19.5637 4.9078C19.7466 2.27812 22.2413 0.244679 24.93 0.914054L25.6641 1.09968C26.9662 1.42593 28.1222 2.38218 28.5103 3.81374C29.1291 6.10874 30.0094 10.8759 28.6847 16.4981C29.0989 16.4409 29.5143 16.3931 29.9306 16.3547C31.9359 16.1719 34.6247 16.1522 37.0069 16.9453C38.4637 17.4319 39.8025 18.8606 40.3819 20.5256C40.8994 22.0219 40.8319 23.7937 39.7237 25.3997C39.8869 25.7344 40.0134 26.0803 40.1119 26.4206C40.3284 27.18 40.4297 28.0153 40.4297 28.8281C40.4297 29.6409 40.3284 30.4762 40.1119 31.2356C40.0022 31.6153 39.8588 32.0034 39.6619 32.3719C40.1372 33.4603 39.9628 34.6753 39.6534 35.6006C39.3367 36.5143 38.8731 37.3702 38.2809 38.1347C38.4328 38.5622 38.4947 39.0122 38.4947 39.4425C38.4947 40.3003 38.2444 41.2003 37.7831 42.0075C36.8438 43.6556 34.9791 45 32.3438 45H22.5C20.7984 45 19.4906 44.7722 18.3769 44.3869C17.4192 44.0371 16.504 43.5805 15.6488 43.0256L15.5137 42.9412C14.0962 42.0778 12.7041 41.2284 9.6975 40.9106C7.54312 40.68 5.625 38.9419 5.625 36.5625V25.3125C5.625 22.9219 7.55156 21.285 9.44156 20.7703C11.8294 20.1178 13.8684 18.5569 15.4378 16.8047C17.0128 15.0412 18.0084 13.2047 18.36 12.195C18.9197 10.5778 19.3612 7.86655 19.5637 4.91062V4.9078Z" fill="white"/>
</g>
<defs>
<clipPath id="clip0_13_15">
<rect width="45" height="45" fill="white"/>
</clipPath>
</defs>
</svg>
